{
	"asset":{
		"generator":"Khronos glTF Blender I/O v4.0.44",
		"version":"2.0"
	},
	"extensionsUsed":[
		"KHR_materials_specular",
		"KHR_materials_ior"
	],
	"scene":0,
	"scenes":[
		{
			"name":"Scene",
			"nodes":[
				0
			]
		}
	],
	"nodes":[
		{
			"mesh":0,
			"name":"3D_PCB1_2024-03-22"
		}
	],
	"materials":[
		{
			"doubleSided":true,
			"extensions":{
				"KHR_materials_specular":{
					"specularFactor":0.9399999976158142
				},
				"KHR_materials_ior":{
					"ior":1.4500000476837158
				}
			},
			"name":"mtl1",
			"pbrMetallicRoughness":{
				"baseColorFactor":[
					0.6700000166893005,
					0.6700000166893005,
					0.6700000166893005,
					1
				],
				"metallicFactor":0
			}
		},
		{
			"doubleSided":true,
			"extensions":{
				"KHR_materials_specular":{
					"specularFactor":0.09333333373069763
				},
				"KHR_materials_ior":{
					"ior":1.4500000476837158
				}
			},
			"name":"mtl2",
			"pbrMetallicRoughness":{
				"baseColorFactor":[
					0.5699999928474426,
					0.6499999761581421,
					0.699999988079071,
					1
				],
				"metallicFactor":0
			}
		},
		{
			"doubleSided":true,
			"extensions":{
				"KHR_materials_specular":{
					"specularFactor":0.03999999910593033
				},
				"KHR_materials_ior":{
					"ior":1.4500000476837158
				}
			},
			"name":"mtl3",
			"pbrMetallicRoughness":{
				"baseColorFactor":[
					0.20999999344348907,
					0.20999999344348907,
					0.20999999344348907,
					1
				],
				"metallicFactor":0
			}
		},
		{
			"doubleSided":true,
			"extensions":{
				"KHR_materials_specular":{
					"specularFactor":0.03999999910593033
				},
				"KHR_materials_ior":{
					"ior":1.4500000476837158
				}
			},
			"name":"mtl4",
			"pbrMetallicRoughness":{
				"baseColorFactor":[
					0.3499999940395355,
					0.3499999940395355,
					0.3499999940395355,
					1
				],
				"metallicFactor":0
			}
		},
		{
			"doubleSided":true,
			"extensions":{
				"KHR_materials_specular":{
					"specularColorFactor":[
						1.7599998712539673,
						1.7599998712539673,
						1.7599998712539673
					]
				},
				"KHR_materials_ior":{
					"ior":1.4500000476837158
				}
			},
			"name":"mtl5",
			"pbrMetallicRoughness":{
				"metallicFactor":0
			}
		},
		{
			"doubleSided":true,
			"extensions":{
				"KHR_materials_specular":{
					"specularFactor":0.3466666638851166
				},
				"KHR_materials_ior":{
					"ior":1.4500000476837158
				}
			},
			"name":"mtl6",
			"pbrMetallicRoughness":{
				"baseColorFactor":[
					0.5899999737739563,
					0.46000000834465027,
					0,
					1
				],
				"metallicFactor":0
			}
		},
		{
			"doubleSided":true,
			"extensions":{
				"KHR_materials_specular":{
					"specularFactor":0.85999995470047
				},
				"KHR_materials_ior":{
					"ior":1.4500000476837158
				}
			},
			"name":"mtl7",
			"pbrMetallicRoughness":{
				"baseColorFactor":[
					0.8500000238418579,
					0.8500000238418579,
					0.8500000238418579,
					1
				],
				"metallicFactor":0
			}
		},
		{
			"doubleSided":true,
			"extensions":{
				"KHR_materials_specular":{
					"specularFactor":0.4399999678134918
				},
				"KHR_materials_ior":{
					"ior":1.4500000476837158
				}
			},
			"name":"mtl8",
			"pbrMetallicRoughness":{
				"baseColorFactor":[
					0.5,
					0.25,
					0,
					1
				],
				"metallicFactor":0
			}
		},
		{
			"doubleSided":true,
			"name":"mtl9",
			"pbrMetallicRoughness":{
				"metallicFactor":0
			}
		},
		{
			"doubleSided":true,
			"extensions":{
				"KHR_materials_specular":{
					"specularFactor":0.25999999046325684
				},
				"KHR_materials_ior":{
					"ior":1.4500000476837158
				}
			},
			"name":"mtl10",
			"pbrMetallicRoughness":{
				"baseColorFactor":[
					0.25,
					0.25,
					0.25,
					1
				],
				"metallicFactor":0
			}
		},
		{
			"doubleSided":true,
			"extensions":{
				"KHR_materials_specular":{
					"specularFactor":0.7599999904632568
				},
				"KHR_materials_ior":{
					"ior":1.4500000476837158
				}
			},
			"name":"mtl11",
			"pbrMetallicRoughness":{
				"baseColorFactor":[
					0.75,
					0.75,
					0.75,
					1
				],
				"metallicFactor":0
			}
		},
		{
			"doubleSided":true,
			"extensions":{
				"KHR_materials_specular":{
					"specularFactor":0
				},
				"KHR_materials_ior":{
					"ior":1.4500000476837158
				}
			},
			"name":"mtl12",
			"pbrMetallicRoughness":{
				"baseColorFactor":[
					0,
					0,
					0,
					1
				],
				"metallicFactor":0
			}
		},
		{
			"doubleSided":true,
			"extensions":{
				"KHR_materials_specular":{
					"specularFactor":0.6600000262260437
				},
				"KHR_materials_ior":{
					"ior":1.4500000476837158
				}
			},
			"name":"mtl13",
			"pbrMetallicRoughness":{
				"baseColorFactor":[
					0.6700000166893005,
					0.6700000166893005,
					0.6700000166893005,
					1
				],
				"metallicFactor":0
			}
		},
		{
			"doubleSided":true,
			"extensions":{
				"KHR_materials_specular":{
					"specularFactor":0.6666666865348816
				},
				"KHR_materials_ior":{
					"ior":1.4500000476837158
				}
			},
			"name":"mtl14",
			"pbrMetallicRoughness":{
				"baseColorFactor":[
					1,
					1,
					0,
					1
				],
				"metallicFactor":0
			}
		},
		{
			"doubleSided":true,
			"extensions":{
				"KHR_materials_specular":{
					"specularColorFactor":[
						1.0866667032241821,
						1.0866667032241821,
						1.0866667032241821
					]
				},
				"KHR_materials_ior":{
					"ior":1.4500000476837158
				}
			},
			"name":"mtl15",
			"pbrMetallicRoughness":{
				"baseColorFactor":[
					0.8299999833106995,
					0.6700000166893005,
					0.12999999523162842,
					1
				],
				"metallicFactor":0
			}
		},
		{
			"doubleSided":true,
			"extensions":{
				"KHR_materials_specular":{
					"specularFactor":0.5
				},
				"KHR_materials_ior":{
					"ior":1.4500000476837158
				}
			},
			"name":"mtl16",
			"pbrMetallicRoughness":{
				"baseColorFactor":[
					0.5,
					0.5,
					0.5,
					1
				],
				"metallicFactor":0
			}
		},
		{
			"doubleSided":true,
			"extensions":{
				"KHR_materials_specular":{
					"specularFactor":0.2199999839067459
				},
				"KHR_materials_ior":{
					"ior":1.4500000476837158
				}
			},
			"name":"mtl17",
			"pbrMetallicRoughness":{
				"baseColorFactor":[
					0.2199999988079071,
					0.2199999988079071,
					0.2199999988079071,
					1
				],
				"metallicFactor":0
			}
		},
		{
			"doubleSided":true,
			"extensions":{
				"KHR_materials_specular":{
					"specularFactor":0.8533332943916321
				},
				"KHR_materials_ior":{
					"ior":1.4500000476837158
				}
			},
			"name":"mtl18",
			"pbrMetallicRoughness":{
				"baseColorFactor":[
					0.800000011920929,
					0.8199999928474426,
					0.9399999976158142,
					1
				],
				"metallicFactor":0
			}
		},
		{
			"doubleSided":true,
			"extensions":{
				"KHR_materials_specular":{
					"specularFactor":0.14000000059604645
				},
				"KHR_materials_ior":{
					"ior":1.4500000476837158
				}
			},
			"name":"mtl19",
			"pbrMetallicRoughness":{
				"baseColorFactor":[
					0.25,
					0.25,
					0.25,
					1
				],
				"metallicFactor":0
			}
		},
		{
			"doubleSided":true,
			"extensions":{
				"KHR_materials_specular":{
					"specularColorFactor":[
						1.0666667222976685,
						1.0666667222976685,
						1.0666667222976685
					]
				},
				"KHR_materials_ior":{
					"ior":1.4500000476837158
				}
			},
			"name":"mtl20",
			"pbrMetallicRoughness":{
				"baseColorFactor":[
					0.6200000047683716,
					0.6200000047683716,
					0.36000001430511475,
					1
				],
				"metallicFactor":0
			}
		}
	],
	"meshes":[
		{
			"name":"3D_PCB1_2024-03-22",
			"primitives":[
				{
					"attributes":{
						"POSITION":0,
						"NORMAL":1
					},
					"indices":2,
					"material":0
				},
				{
					"attributes":{
						"POSITION":3,
						"NORMAL":4
					},
					"indices":5,
					"material":1
				},
				{
					"attributes":{
						"POSITION":6,
						"NORMAL":7
					},
					"indices":8,
					"material":2
				},
				{
					"attributes":{
						"POSITION":9,
						"NORMAL":10
					},
					"indices":11,
					"material":3
				},
				{
					"attributes":{
						"POSITION":12,
						"NORMAL":13
					},
					"indices":14,
					"material":4
				},
				{
					"attributes":{
						"POSITION":15,
						"NORMAL":16
					},
					"indices":17,
					"material":5
				},
				{
					"attributes":{
						"POSITION":18,
						"NORMAL":19
					},
					"indices":20,
					"material":6
				},
				{
					"attributes":{
						"POSITION":21,
						"NORMAL":22
					},
					"indices":23,
					"material":7
				},
				{
					"attributes":{
						"POSITION":24,
						"NORMAL":25
					},
					"indices":26,
					"material":8
				},
				{
					"attributes":{
						"POSITION":27,
						"NORMAL":28
					},
					"indices":29,
					"material":9
				},
				{
					"attributes":{
						"POSITION":30,
						"NORMAL":31
					},
					"indices":32,
					"material":10
				},
				{
					"attributes":{
						"POSITION":33,
						"NORMAL":34
					},
					"indices":35,
					"material":11
				},
				{
					"attributes":{
						"POSITION":36,
						"NORMAL":37
					},
					"indices":38,
					"material":12
				},
				{
					"attributes":{
						"POSITION":39,
						"NORMAL":40
					},
					"indices":41,
					"material":13
				},
				{
					"attributes":{
						"POSITION":42,
						"NORMAL":43
					},
					"indices":44,
					"material":14
				},
				{
					"attributes":{
						"POSITION":45,
						"NORMAL":46
					},
					"indices":47,
					"material":15
				},
				{
					"attributes":{
						"POSITION":48,
						"NORMAL":49
					},
					"indices":50,
					"material":16
				},
				{
					"attributes":{
						"POSITION":51,
						"NORMAL":52
					},
					"indices":53,
					"material":17
				},
				{
					"attributes":{
						"POSITION":54,
						"NORMAL":55
					},
					"indices":56,
					"material":18
				},
				{
					"attributes":{
						"POSITION":57,
						"NORMAL":58
					},
					"indices":59,
					"material":19
				}
			]
		}
	],
	"accessors":[
		{
			"bufferView":0,
			"componentType":5126,
			"count":778,
			"max":[
				2.3371050357818604,
				0.3108687698841095,
				1.29884672164917
			],
			"min":[
				-1.4731943607330322,
				-0.2500000298023224,
				0.0981563851237297
			],
			"type":"VEC3"
		},
		{
			"bufferView":1,
			"componentType":5126,
			"count":778,
			"type":"VEC3"
		},
		{
			"bufferView":2,
			"componentType":5123,
			"count":1335,
			"type":"SCALAR"
		},
		{
			"bufferView":3,
			"componentType":5126,
			"count":360,
			"max":[
				0.3968060612678528,
				0.2808688282966614,
				1.277276873588562
			],
			"min":[
				-1.4481258392333984,
				-0.1391313523054123,
				0.1293039619922638
			],
			"type":"VEC3"
		},
		{
			"bufferView":4,
			"componentType":5126,
			"count":360,
			"type":"VEC3"
		},
		{
			"bufferView":5,
			"componentType":5123,
			"count":666,
			"type":"SCALAR"
		},
		{
			"bufferView":6,
			"componentType":5126,
			"count":512,
			"max":[
				2.2721049785614014,
				0.23551923036575317,
				1.2284759283065796
			],
			"min":[
				1.0524412393569946,
				0.003756334539502859,
				0.12103516608476639
			],
			"type":"VEC3"
		},
		{
			"bufferView":7,
			"componentType":5126,
			"count":512,
			"type":"VEC3"
		},
		{
			"bufferView":8,
			"componentType":5123,
			"count":1290,
			"type":"SCALAR"
		},
		{
			"bufferView":9,
			"componentType":5126,
			"count":73,
			"max":[
				2.2543835639953613,
				0.09375637769699097,
				0.8304888606071472
			],
			"min":[
				2.2340238094329834,
				0.09175637364387512,
				0.8104888796806335
			],
			"type":"VEC3"
		},
		{
			"bufferView":10,
			"componentType":5126,
			"count":73,
			"type":"VEC3"
		},
		{
			"bufferView":11,
			"componentType":5123,
			"count":96,
			"type":"SCALAR"
		},
		{
			"bufferView":12,
			"componentType":5126,
			"count":3141,
			"max":[
				2.4726922512054443,
				0.007015531416982412,
				1.1622024774551392
			],
			"min":[
				1.256655216217041,
				-0.25680458545684814,
				0.23480066657066345
			],
			"type":"VEC3"
		},
		{
			"bufferView":13,
			"componentType":5126,
			"count":3141,
			"type":"VEC3"
		},
		{
			"bufferView":14,
			"componentType":5123,
			"count":4632,
			"type":"SCALAR"
		},
		{
			"bufferView":15,
			"componentType":5126,
			"count":1407,
			"max":[
				2.3259127140045166,
				0.08003251254558563,
				1.1732831001281738
			],
			"min":[
				1.7508480548858643,
				0.00026903749676421285,
				1.0616873502731323
			],
			"type":"VEC3"
		},
		{
			"bufferView":16,
			"componentType":5126,
			"count":1407,
			"type":"VEC3"
		},
		{
			"bufferView":17,
			"componentType":5123,
			"count":3060,
			"type":"SCALAR"
		},
		{
			"bufferView":18,
			"componentType":5126,
			"count":2606,
			"max":[
				2.326005220413208,
				0.0801645815372467,
				1.1973953247070312
			],
			"min":[
				1.750704050064087,
				1.2693615758507804e-07,
				1.03750479221344
			],
			"type":"VEC3"
		},
		{
			"bufferView":19,
			"componentType":5126,
			"count":2606,
			"type":"VEC3"
		},
		{
			"bufferView":20,
			"componentType":5123,
			"count":2928,
			"type":"SCALAR"
		},
		{
			"bufferView":21,
			"componentType":5126,
			"count":208,
			"max":[
				2.30110502243042,
				0.0440000519156456,
				1.1581025123596191
			],
			"min":[
				0.54230135679245,
				-0.20400509238243103,
				0.174000546336174
			],
			"type":"VEC3"
		},
		{
			"bufferView":22,
			"componentType":5126,
			"count":208,
			"type":"VEC3"
		},
		{
			"bufferView":23,
			"componentType":5123,
			"count":390,
			"type":"SCALAR"
		},
		{
			"bufferView":24,
			"componentType":5126,
			"count":1418,
			"max":[
				2.30110502243042,
				0.045000046491622925,
				1.1581025123596191
			],
			"min":[
				0.54230135679245,
				-0.21825505793094635,
				0.174000546336174
			],
			"type":"VEC3"
		},
		{
			"bufferView":25,
			"componentType":5126,
			"count":1418,
			"type":"VEC3"
		},
		{
			"bufferView":26,
			"componentType":5123,
			"count":2184,
			"type":"SCALAR"
		},
		{
			"bufferView":27,
			"componentType":5126,
			"count":1296,
			"max":[
				2.4036924839019775,
				0.09114298224449158,
				1.1581025123596191
			],
			"min":[
				0.5683013796806335,
				-0.25680458545684814,
				0.2000005543231964
			],
			"type":"VEC3"
		},
		{
			"bufferView":28,
			"componentType":5126,
			"count":1296,
			"type":"VEC3"
		},
		{
			"bufferView":29,
			"componentType":5123,
			"count":2220,
			"type":"SCALAR"
		},
		{
			"bufferView":30,
			"componentType":5126,
			"count":16434,
			"max":[
				2.30110502243042,
				0.0440000519156456,
				1.1581025123596191
			],
			"min":[
				0.54230135679245,
				-0.20400509238243103,
				0.174000546336174
			],
			"type":"VEC3"
		},
		{
			"bufferView":31,
			"componentType":5126,
			"count":16434,
			"type":"VEC3"
		},
		{
			"bufferView":32,
			"componentType":5123,
			"count":27339,
			"type":"SCALAR"
		},
		{
			"bufferView":33,
			"componentType":5126,
			"count":20492,
			"max":[
				2.221104860305786,
				0.03944844380021095,
				1.078102469444275
			],
			"min":[
				0.5481523871421814,
				-0.25625506043434143,
				0.17985157668590546
			],
			"type":"VEC3"
		},
		{
			"bufferView":34,
			"componentType":5126,
			"count":20492,
			"type":"VEC3"
		},
		{
			"bufferView":35,
			"componentType":5123,
			"count":23127,
			"type":"SCALAR"
		},
		{
			"bufferView":36,
			"componentType":5126,
			"count":204,
			"max":[
				1.8022241592407227,
				0.09114297479391098,
				0.8360142707824707
			],
			"min":[
				1.6782026290893555,
				0.09014295041561127,
				0.6474481821060181
			],
			"type":"VEC3"
		},
		{
			"bufferView":37,
			"componentType":5126,
			"count":204,
			"type":"VEC3"
		},
		{
			"bufferView":38,
			"componentType":5123,
			"count":375,
			"type":"SCALAR"
		},
		{
			"bufferView":39,
			"componentType":5126,
			"count":3,
			"max":[
				1.7282027006149292,
				0.0003429572388995439,
				0.8385143280029297
			],
			"min":[
				1.698533058166504,
				9.884536211757222e-08,
				0.7891303300857544
			],
			"type":"VEC3"
		},
		{
			"bufferView":40,
			"componentType":5126,
			"count":3,
			"type":"VEC3"
		},
		{
			"bufferView":41,
			"componentType":5123,
			"count":3,
			"type":"SCALAR"
		},
		{
			"bufferView":42,
			"componentType":5126,
			"count":64,
			"max":[
				1.5134572982788086,
				0.04509952664375305,
				1.2234649658203125
			],
			"min":[
				1.0581934452056885,
				1.5025884536612466e-08,
				0.12604625523090363
			],
			"type":"VEC3"
		},
		{
			"bufferView":43,
			"componentType":5126,
			"count":64,
			"type":"VEC3"
		},
		{
			"bufferView":44,
			"componentType":5123,
			"count":84,
			"type":"SCALAR"
		},
		{
			"bufferView":45,
			"componentType":5126,
			"count":385,
			"max":[
				1.5269583463668823,
				-0.16625501215457916,
				0.918501615524292
			],
			"min":[
				0.8860470056533813,
				-0.25625506043434143,
				0.478501558303833
			],
			"type":"VEC3"
		},
		{
			"bufferView":46,
			"componentType":5126,
			"count":385,
			"type":"VEC3"
		},
		{
			"bufferView":47,
			"componentType":5123,
			"count":957,
			"type":"SCALAR"
		},
		{
			"bufferView":48,
			"componentType":5126,
			"count":691,
			"max":[
				2.4487051963806152,
				-0.16100497543811798,
				1.1922024488449097
			],
			"min":[
				2.148705005645752,
				-0.19600510597229004,
				0.20480066537857056
			],
			"type":"VEC3"
		},
		{
			"bufferView":49,
			"componentType":5126,
			"count":691,
			"type":"VEC3"
		},
		{
			"bufferView":50,
			"componentType":5123,
			"count":1614,
			"type":"SCALAR"
		},
		{
			"bufferView":51,
			"componentType":5126,
			"count":1428,
			"max":[
				2.3973031044006348,
				-0.18600499629974365,
				1.1672024726867676
			],
			"min":[
				2.19986629486084,
				-0.20600509643554688,
				0.22980067133903503
			],
			"type":"VEC3"
		},
		{
			"bufferView":52,
			"componentType":5126,
			"count":1428,
			"type":"VEC3"
		},
		{
			"bufferView":53,
			"componentType":5123,
			"count":3378,
			"type":"SCALAR"
		},
		{
			"bufferView":54,
			"componentType":5126,
			"count":1094,
			"max":[
				2.4036924839019775,
				-0.16221901774406433,
				0.8035016059875488
			],
			"min":[
				2.193692445755005,
				-0.2548045814037323,
				0.5935015082359314
			],
			"type":"VEC3"
		},
		{
			"bufferView":55,
			"componentType":5126,
			"count":1094,
			"type":"VEC3"
		},
		{
			"bufferView":56,
			"componentType":5123,
			"count":1614,
			"type":"SCALAR"
		},
		{
			"bufferView":57,
			"componentType":5126,
			"count":50672,
			"max":[
				2.98958683013916,
				1.656273695971322e-07,
				1.38938307762146
			],
			"min":[
				0.007620017044246197,
				-0.160005122423172,
				0.007570057641714811
			],
			"type":"VEC3"
		},
		{
			"bufferView":58,
			"componentType":5126,
			"count":50672,
			"type":"VEC3"
		},
		{
			"bufferView":59,
			"componentType":5123,
			"count":87882,
			"type":"SCALAR"
		}
	],
	"bufferViews":[
		{
			"buffer":0,
			"byteLength":9336,
			"byteOffset":0,
			"target":34962
		},
		{
			"buffer":0,
			"byteLength":9336,
			"byteOffset":9336,
			"target":34962
		},
		{
			"buffer":0,
			"byteLength":2670,
			"byteOffset":18672,
			"target":34963
		},
		{
			"buffer":0,
			"byteLength":4320,
			"byteOffset":21344,
			"target":34962
		},
		{
			"buffer":0,
			"byteLength":4320,
			"byteOffset":25664,
			"target":34962
		},
		{
			"buffer":0,
			"byteLength":1332,
			"byteOffset":29984,
			"target":34963
		},
		{
			"buffer":0,
			"byteLength":6144,
			"byteOffset":31316,
			"target":34962
		},
		{
			"buffer":0,
			"byteLength":6144,
			"byteOffset":37460,
			"target":34962
		},
		{
			"buffer":0,
			"byteLength":2580,
			"byteOffset":43604,
			"target":34963
		},
		{
			"buffer":0,
			"byteLength":876,
			"byteOffset":46184,
			"target":34962
		},
		{
			"buffer":0,
			"byteLength":876,
			"byteOffset":47060,
			"target":34962
		},
		{
			"buffer":0,
			"byteLength":192,
			"byteOffset":47936,
			"target":34963
		},
		{
			"buffer":0,
			"byteLength":37692,
			"byteOffset":48128,
			"target":34962
		},
		{
			"buffer":0,
			"byteLength":37692,
			"byteOffset":85820,
			"target":34962
		},
		{
			"buffer":0,
			"byteLength":9264,
			"byteOffset":123512,
			"target":34963
		},
		{
			"buffer":0,
			"byteLength":16884,
			"byteOffset":132776,
			"target":34962
		},
		{
			"buffer":0,
			"byteLength":16884,
			"byteOffset":149660,
			"target":34962
		},
		{
			"buffer":0,
			"byteLength":6120,
			"byteOffset":166544,
			"target":34963
		},
		{
			"buffer":0,
			"byteLength":31272,
			"byteOffset":172664,
			"target":34962
		},
		{
			"buffer":0,
			"byteLength":31272,
			"byteOffset":203936,
			"target":34962
		},
		{
			"buffer":0,
			"byteLength":5856,
			"byteOffset":235208,
			"target":34963
		},
		{
			"buffer":0,
			"byteLength":2496,
			"byteOffset":241064,
			"target":34962
		},
		{
			"buffer":0,
			"byteLength":2496,
			"byteOffset":243560,
			"target":34962
		},
		{
			"buffer":0,
			"byteLength":780,
			"byteOffset":246056,
			"target":34963
		},
		{
			"buffer":0,
			"byteLength":17016,
			"byteOffset":246836,
			"target":34962
		},
		{
			"buffer":0,
			"byteLength":17016,
			"byteOffset":263852,
			"target":34962
		},
		{
			"buffer":0,
			"byteLength":4368,
			"byteOffset":280868,
			"target":34963
		},
		{
			"buffer":0,
			"byteLength":15552,
			"byteOffset":285236,
			"target":34962
		},
		{
			"buffer":0,
			"byteLength":15552,
			"byteOffset":300788,
			"target":34962
		},
		{
			"buffer":0,
			"byteLength":4440,
			"byteOffset":316340,
			"target":34963
		},
		{
			"buffer":0,
			"byteLength":197208,
			"byteOffset":320780,
			"target":34962
		},
		{
			"buffer":0,
			"byteLength":197208,
			"byteOffset":517988,
			"target":34962
		},
		{
			"buffer":0,
			"byteLength":54678,
			"byteOffset":715196,
			"target":34963
		},
		{
			"buffer":0,
			"byteLength":245904,
			"byteOffset":769876,
			"target":34962
		},
		{
			"buffer":0,
			"byteLength":245904,
			"byteOffset":1015780,
			"target":34962
		},
		{
			"buffer":0,
			"byteLength":46254,
			"byteOffset":1261684,
			"target":34963
		},
		{
			"buffer":0,
			"byteLength":2448,
			"byteOffset":1307940,
			"target":34962
		},
		{
			"buffer":0,
			"byteLength":2448,
			"byteOffset":1310388,
			"target":34962
		},
		{
			"buffer":0,
			"byteLength":750,
			"byteOffset":1312836,
			"target":34963
		},
		{
			"buffer":0,
			"byteLength":36,
			"byteOffset":1313588,
			"target":34962
		},
		{
			"buffer":0,
			"byteLength":36,
			"byteOffset":1313624,
			"target":34962
		},
		{
			"buffer":0,
			"byteLength":6,
			"byteOffset":1313660,
			"target":34963
		},
		{
			"buffer":0,
			"byteLength":768,
			"byteOffset":1313668,
			"target":34962
		},
		{
			"buffer":0,
			"byteLength":768,
			"byteOffset":1314436,
			"target":34962
		},
		{
			"buffer":0,
			"byteLength":168,
			"byteOffset":1315204,
			"target":34963
		},
		{
			"buffer":0,
			"byteLength":4620,
			"byteOffset":1315372,
			"target":34962
		},
		{
			"buffer":0,
			"byteLength":4620,
			"byteOffset":1319992,
			"target":34962
		},
		{
			"buffer":0,
			"byteLength":1914,
			"byteOffset":1324612,
			"target":34963
		},
		{
			"buffer":0,
			"byteLength":8292,
			"byteOffset":1326528,
			"target":34962
		},
		{
			"buffer":0,
			"byteLength":8292,
			"byteOffset":1334820,
			"target":34962
		},
		{
			"buffer":0,
			"byteLength":3228,
			"byteOffset":1343112,
			"target":34963
		},
		{
			"buffer":0,
			"byteLength":17136,
			"byteOffset":1346340,
			"target":34962
		},
		{
			"buffer":0,
			"byteLength":17136,
			"byteOffset":1363476,
			"target":34962
		},
		{
			"buffer":0,
			"byteLength":6756,
			"byteOffset":1380612,
			"target":34963
		},
		{
			"buffer":0,
			"byteLength":13128,
			"byteOffset":1387368,
			"target":34962
		},
		{
			"buffer":0,
			"byteLength":13128,
			"byteOffset":1400496,
			"target":34962
		},
		{
			"buffer":0,
			"byteLength":3228,
			"byteOffset":1413624,
			"target":34963
		},
		{
			"buffer":0,
			"byteLength":608064,
			"byteOffset":1416852,
			"target":34962
		},
		{
			"buffer":0,
			"byteLength":608064,
			"byteOffset":2024916,
			"target":34962
		},
		{
			"buffer":0,
			"byteLength":175764,
			"byteOffset":2632980,
			"target":34963
		}
	],
	"buffers":[
		{
			"byteLength":2808744,
			"uri":"pcb.bin"
		}
	]
}
